<svg width="177" height="66" viewBox="0 0 177 66" fill="none" xmlns="http://www.w3.org/2000/svg">
<g clip-path="url(#clip0_13_14)">
<g filter="url(#filter0_f_13_14)">
<rect x="12.8357" y="23.7548" width="146.284" height="18.2407" rx="9.12036" fill="#FF36B5"/>
</g>
<mask id="path-2-outside-1_13_14" maskUnits="userSpaceOnUse" x="14.0337" y="12.1643" width="150" height="41" fill="black">
<rect fill="white" x="14.0337" y="12.1643" width="150" height="41"/>
<path d="M18.6657 41.3557C18.367 41.3557 18.015 41.1104 17.6097 40.6197C17.2257 40.1077 17.0337 39.5851 17.0337 39.0517C17.0337 38.4971 17.727 35.5317 19.1137 30.1557C20.5004 24.7797 21.1937 21.4091 21.1937 20.0437C21.1937 19.6597 21.2364 19.3931 21.3217 19.2437C21.407 19.0944 21.599 19.0197 21.8977 19.0197C22.2177 19.0197 22.591 19.3504 23.0177 20.0117C23.4444 20.6731 23.6577 21.4304 23.6577 22.2837C23.6577 23.1371 23.103 25.6651 21.9937 29.8677C23.935 27.2224 25.983 24.7904 28.1377 22.5717C30.2924 20.3317 31.6577 19.2117 32.2337 19.2117C32.6604 19.2117 33.055 19.3504 33.4177 19.6277C33.8017 19.9051 33.9937 20.1824 33.9937 20.4597C33.9937 20.7157 33.4817 21.3131 32.4577 22.2517C31.455 23.1691 30.1004 24.4597 28.3937 26.1237C26.687 27.7877 25.2257 29.4517 24.0097 31.1157C24.0097 31.9904 24.2444 32.9397 24.7137 33.9637C25.4604 35.6704 26.9964 37.0891 29.3217 38.2197C30.3244 38.7104 31.103 39.1264 31.6577 39.4677C32.2337 39.8091 32.5217 40.1611 32.5217 40.5237C32.5217 41.0784 32.1057 41.3557 31.2737 41.3557C30.4417 41.3557 29.567 41.1851 28.6497 40.8437C27.7324 40.4811 26.815 39.9797 25.8977 39.3397C24.9804 38.6997 24.1377 37.8571 23.3697 36.8117C22.623 35.7451 22.111 34.5824 21.8337 33.3237C21.1724 34.4971 20.5537 36.0437 19.9777 37.9637C19.2737 40.2251 18.847 41.3557 18.6977 41.3557H18.6657Z"/>
<path d="M47.7159 25.6437C48.0573 25.6437 48.4199 25.8997 48.8039 26.4117C49.2093 26.9024 49.4119 27.4571 49.4119 28.0757C49.4119 28.5024 48.9746 29.9531 48.0999 32.4277C47.2253 34.9024 46.6279 36.5877 46.3079 37.4837C46.0093 38.3584 45.5933 39.5317 45.0599 41.0037C44.5479 42.4544 44.0466 43.8731 43.5559 45.2597C42.4893 48.3104 40.8893 49.8357 38.7559 49.8357C37.5399 49.8357 36.3773 49.4624 35.2679 48.7157C34.1586 47.9904 33.6039 47.2331 33.6039 46.4437C33.6039 46.1451 33.7426 45.8144 34.0199 45.4517C34.2759 45.0891 34.4999 44.9077 34.6919 44.9077C34.8839 44.9077 35.1933 45.1424 35.6199 45.6117C36.8573 47.0197 37.9133 47.7237 38.7879 47.7237C39.4493 47.7237 40.0466 47.1371 40.5799 45.9637C41.1133 44.8117 41.6146 43.4997 42.0839 42.0277C42.5746 40.5771 42.8413 39.7771 42.8839 39.6277C42.9479 39.4784 43.0119 39.2864 43.0759 39.0517C43.1613 38.8171 43.2359 38.6037 43.2999 38.4117C41.7853 40.4811 40.2919 41.5157 38.8199 41.5157C37.9239 41.5157 37.0919 41.0997 36.3239 40.2677C35.5773 39.4357 35.2039 38.4544 35.2039 37.3237C35.2039 36.1931 35.4813 34.6677 36.0359 32.7477C36.5906 30.8277 37.2413 29.1637 37.9879 27.7557C38.7346 26.3477 39.3426 25.6437 39.8119 25.6437C40.1959 25.6437 40.5479 25.8251 40.8679 26.1877C41.2093 26.5291 41.3799 26.8811 41.3799 27.2437C41.3799 27.6064 41.1026 28.3637 40.5479 29.5157C38.8199 33.0571 37.9559 35.8091 37.9559 37.7717C37.9559 38.1131 38.0626 38.4011 38.2759 38.6357C38.4893 38.8491 38.7453 38.9557 39.0439 38.9557C39.8119 38.9557 40.7293 38.2731 41.7959 36.9077C42.8626 35.5424 43.8439 33.9211 44.7399 32.0437C45.4866 30.4651 46.2653 28.4491 47.0759 25.9957C47.1613 25.7611 47.3746 25.6437 47.7159 25.6437Z"/>
<path d="M51.7542 17.0546C54.5999 16.0021 55.9869 20.7136 55.9869 20.7136C55.9869 20.7136 56.9674 14.4005 61.1762 16.6481C65.385 18.8957 56.2261 24.994 55.1021 24.7548C53.9782 24.5157 48.9084 18.1071 51.7542 17.0546ZM54.1399 25.6437C54.5453 25.6437 54.9293 25.8891 55.2919 26.3797C55.6546 26.8704 55.8359 27.3504 55.8359 27.8197C55.8359 28.2891 55.5266 29.6971 54.9079 32.0437C54.2893 34.3691 53.5106 36.9824 52.5719 39.8837C52.2093 40.9504 51.7506 41.4837 51.1959 41.4837C50.8973 41.4837 50.6413 41.3664 50.4279 41.1317C50.2146 40.8757 50.1079 40.5984 50.1079 40.2997C50.1079 39.9797 50.1826 39.4891 50.3319 38.8277C50.5026 38.1451 50.7373 37.2491 51.0359 36.1397C51.3559 35.0091 51.6013 34.0917 51.7719 33.3877C51.9639 32.6837 52.1559 31.8944 52.3479 31.0197C52.5399 30.1237 52.6893 29.4091 52.7959 28.8757C52.9239 28.3211 53.0626 27.7664 53.2119 27.2117C53.5106 26.1664 53.8199 25.6437 54.1399 25.6437Z"/>
<path d="M68.8689 25.6437C69.2316 25.6437 69.5836 25.7824 69.9249 26.0597C70.2663 26.3157 70.4369 26.6037 70.4369 26.9237C70.4369 27.4997 69.6583 29.4944 68.1009 32.9077C66.5649 36.3211 65.4663 38.6251 64.8049 39.8197C64.1649 40.9931 63.5996 41.5797 63.1089 41.5797C62.8316 41.5797 62.4903 41.3771 62.0849 40.9717C61.6796 40.5664 61.3809 40.1291 61.1889 39.6597C60.6129 38.3157 59.9943 36.1504 59.3329 33.1637C58.6716 30.1771 58.3409 27.9904 58.3409 26.6037C58.3409 25.9637 58.5329 25.6437 58.9169 25.6437C59.3863 25.6437 59.8663 25.8464 60.3569 26.2517C60.8476 26.6357 61.1889 27.1264 61.3809 27.7237C61.4449 28.0651 61.5303 28.9184 61.6369 30.2837C61.9356 33.6544 62.4476 36.2464 63.1729 38.0597C63.7489 36.8224 64.4849 35.0731 65.3809 32.8117C66.2769 30.5291 67.0023 28.7691 67.5569 27.5317C68.1329 26.2731 68.5703 25.6437 68.8689 25.6437Z"/>
<path d="M88.2249 24.2997C88.2249 26.6037 87.1156 28.5557 84.8969 30.1557C82.6996 31.7557 79.7876 32.9077 76.1609 33.6117C74.6036 38.8811 73.6756 41.5157 73.3769 41.5157C73.0783 41.5157 72.7263 41.2811 72.3209 40.8117C71.9156 40.3211 71.7129 39.8411 71.7129 39.3717C71.7129 38.8811 72.0223 37.6011 72.6409 35.5317C74.5609 29.1531 75.5636 24.7051 75.6489 22.1877C75.1369 21.7184 74.8809 21.2917 74.8809 20.9077C74.8809 20.3744 75.6063 19.8624 77.0569 19.3717C78.5076 18.8811 79.8943 18.6357 81.2169 18.6357C83.2649 18.6357 84.9396 19.1584 86.2409 20.2037C87.5636 21.2491 88.2249 22.6144 88.2249 24.2997ZM85.4089 24.4917C85.4089 23.5531 85.0463 22.7851 84.3209 22.1877C83.6169 21.5691 82.7636 21.2597 81.7609 21.2597C80.7583 21.2597 79.5423 21.5797 78.1129 22.2197C78.3263 22.6891 78.4329 23.1264 78.4329 23.5317C78.4329 24.7264 77.9103 27.2544 76.8649 31.1157C79.4249 30.4331 81.4836 29.4944 83.0409 28.2997C84.6196 27.0837 85.4089 25.8144 85.4089 24.4917Z"/>
<path d="M100.032 26.5397C100.117 26.1984 100.203 25.9637 100.288 25.8357C100.373 25.7077 100.555 25.6437 100.832 25.6437C101.131 25.6437 101.483 25.9211 101.888 26.4757C102.315 27.0304 102.528 27.5637 102.528 28.0757C102.528 28.3531 102.059 29.9957 101.12 33.0037C100.181 36.0117 99.4559 38.4011 98.9439 40.1717C98.6879 41.0677 98.3253 41.5157 97.8559 41.5157C97.5786 41.5157 97.3439 41.3984 97.1519 41.1637C96.9599 40.9291 96.8639 40.5024 96.8639 39.8837C96.8639 39.2651 97.1093 38.1451 97.5999 36.5237C96.7039 37.9744 95.7333 39.1691 94.6879 40.1077C93.6426 41.0464 92.6826 41.5157 91.8079 41.5157C90.9546 41.5157 90.1439 41.1104 89.3759 40.2997C88.6079 39.4891 88.2239 38.6571 88.2239 37.8037C88.2239 35.7771 88.8106 33.2491 89.9839 30.2197C91.1786 27.1691 92.1706 25.6437 92.9599 25.6437C93.3439 25.6437 93.6746 25.8251 93.9519 26.1877C94.2506 26.5291 94.3999 26.9237 94.3999 27.3717C94.3999 27.5637 94.1119 28.2571 93.5359 29.4517C92.9599 30.6251 92.3839 32.0117 91.8079 33.6117C91.2319 35.1904 90.9439 36.5771 90.9439 37.7717C90.9439 38.1131 91.0506 38.4011 91.2639 38.6357C91.4773 38.8491 91.7333 38.9557 92.0319 38.9557C92.8426 38.9557 93.8026 38.2411 94.9119 36.8117C96.0426 35.3824 97.0666 33.7184 97.9839 31.8197C98.9013 29.9211 99.5839 28.1611 100.032 26.5397Z"/>
<path d="M107.694 38.3157C107.694 38.7211 107.929 38.9237 108.398 38.9237C109.209 38.9237 110.19 38.6997 111.342 38.2517C112.516 37.7824 113.166 37.5477 113.294 37.5477C113.678 37.5477 113.87 37.7504 113.87 38.1557C113.87 38.7744 113.23 39.4891 111.95 40.2997C110.692 41.1104 109.54 41.5157 108.494 41.5157C107.47 41.5157 106.617 41.2384 105.934 40.6837C105.252 40.1077 104.91 39.5211 104.91 38.9237C104.91 38.3264 105.038 37.5691 105.294 36.6517C105.55 35.7131 105.913 34.4864 106.382 32.9717C106.873 31.4357 107.257 30.1664 107.534 29.1637C106.532 29.3984 105.86 29.5157 105.518 29.5157C105.177 29.5157 104.836 29.3451 104.494 29.0037C104.174 28.6411 104.014 28.2997 104.014 27.9797C104.014 27.4677 105.401 26.9771 108.174 26.5077C108.558 24.7371 108.75 23.1691 108.75 21.8037C108.75 21.1637 108.964 20.8437 109.39 20.8437C109.753 20.8437 110.201 21.0784 110.734 21.5477C111.268 21.9957 111.534 22.5077 111.534 23.0837C111.534 23.6597 111.353 24.6731 110.99 26.1237C112.206 26.0171 113.177 25.9637 113.902 25.9637C115.182 25.9637 115.822 26.2411 115.822 26.7957C115.822 27.1157 115.47 27.3824 114.766 27.5957C114.084 27.8091 112.633 28.1397 110.414 28.5877C109.966 30.2731 109.401 32.2037 108.718 34.3797C108.036 36.5344 107.694 37.8464 107.694 38.3157Z"/>
<path d="M124.997 25.6437C125.957 25.6437 126.843 26.1344 127.653 27.1157C128.464 28.0757 128.869 28.9504 128.869 29.7397C128.869 30.5077 128.603 31.2971 128.069 32.1077C128.325 32.4277 128.453 32.7051 128.453 32.9397C128.453 33.5371 128.315 34.5611 128.037 36.0117C127.781 37.4624 127.621 38.4117 127.557 38.8597C127.515 39.3077 127.472 39.6704 127.429 39.9477C127.387 40.2037 127.333 40.4597 127.269 40.7157C127.184 41.2491 126.992 41.5157 126.693 41.5157C126.309 41.5157 125.989 41.1851 125.733 40.5237C125.499 39.8411 125.36 38.9664 125.317 37.8997C123.419 40.3104 121.659 41.5157 120.037 41.5157C119.056 41.5157 118.085 41.0997 117.125 40.2677C116.187 39.4144 115.717 38.5397 115.717 37.6437C115.717 36.3637 116.187 34.7851 117.125 32.9077C118.064 31.0091 119.28 29.3237 120.773 27.8517C122.267 26.3797 123.675 25.6437 124.997 25.6437ZM126.469 31.2757C126.469 29.2917 126.075 28.2997 125.285 28.2997C124.453 28.2997 123.483 28.8971 122.373 30.0917C121.264 31.2651 120.325 32.5984 119.557 34.0917C118.789 35.5851 118.405 36.7691 118.405 37.6437C118.405 38.0064 118.555 38.3051 118.853 38.5397C119.152 38.7531 119.504 38.8597 119.909 38.8597C120.912 38.8597 122.043 38.1877 123.301 36.8437C124.56 35.4784 125.435 33.8251 125.925 31.8837C125.989 31.5637 126.171 31.3717 126.469 31.3077V31.2757Z"/>
<path d="M134.621 35.9477C136.669 32.4704 138.333 29.8891 139.613 28.2037C140.915 26.4971 141.971 25.6437 142.781 25.6437C143.613 25.6437 144.392 26.0811 145.117 26.9557C145.864 27.8304 146.237 28.7584 146.237 29.7397C146.237 31.2757 145.885 33.1531 145.181 35.3717C143.901 39.4677 142.749 41.5157 141.725 41.5157C141.256 41.5157 141.021 41.1957 141.021 40.5557C141.021 40.1077 141.245 39.2011 141.693 37.8357C142.163 36.4491 142.589 35.0944 142.973 33.7717C143.379 32.4277 143.581 31.4251 143.581 30.7637C143.581 30.0811 143.475 29.5797 143.261 29.2597C143.069 28.9397 142.867 28.7797 142.653 28.7797C142.461 28.7797 142.259 28.8437 142.045 28.9717C141.832 29.0997 141.587 29.3131 141.309 29.6117C141.053 29.9104 140.808 30.2091 140.573 30.5077C140.339 30.7851 140.04 31.1904 139.677 31.7237C139.336 32.2571 139.048 32.7157 138.813 33.0997C138.579 33.4624 138.237 33.9957 137.789 34.6997C137.341 35.4037 137 35.9371 136.765 36.2997C136.531 36.6624 136.221 37.1531 135.837 37.7717C135.453 38.3904 135.144 38.8704 134.909 39.2117C134.696 39.5531 134.451 39.9264 134.173 40.3317C133.64 41.1211 133.213 41.5157 132.893 41.5157C132.595 41.5157 132.243 41.2811 131.837 40.8117C131.432 40.3211 131.229 39.8944 131.229 39.5317C131.229 39.4251 131.304 39.1371 131.453 38.6677C131.859 37.4304 132.307 35.9051 132.797 34.0917C133.288 32.2571 133.555 30.1771 133.597 27.8517C133.661 26.2944 133.885 25.5157 134.269 25.5157C134.739 25.5157 135.208 25.7611 135.677 26.2517C136.147 26.7424 136.381 27.2864 136.381 27.8837C136.381 28.4597 136.2 29.5904 135.837 31.2757C135.496 32.9397 135.091 34.4971 134.621 35.9477Z"/>
<path d="M157.06 25.6437C158.02 25.6437 158.905 26.1344 159.716 27.1157C160.526 28.0757 160.932 28.9504 160.932 29.7397C160.932 30.5077 160.665 31.2971 160.132 32.1077C160.388 32.4277 160.516 32.7051 160.516 32.9397C160.516 33.5371 160.377 34.5611 160.1 36.0117C159.844 37.4624 159.684 38.4117 159.62 38.8597C159.577 39.3077 159.534 39.6704 159.492 39.9477C159.449 40.2037 159.396 40.4597 159.332 40.7157C159.246 41.2491 159.054 41.5157 158.756 41.5157C158.372 41.5157 158.052 41.1851 157.796 40.5237C157.561 39.8411 157.422 38.9664 157.38 37.8997C155.481 40.3104 153.721 41.5157 152.1 41.5157C151.118 41.5157 150.148 41.0997 149.188 40.2677C148.249 39.4144 147.78 38.5397 147.78 37.6437C147.78 36.3637 148.249 34.7851 149.188 32.9077C150.126 31.0091 151.342 29.3237 152.836 27.8517C154.329 26.3797 155.737 25.6437 157.06 25.6437ZM158.532 31.2757C158.532 29.2917 158.137 28.2997 157.348 28.2997C156.516 28.2997 155.545 28.8971 154.436 30.0917C153.326 31.2651 152.388 32.5984 151.62 34.0917C150.852 35.5851 150.468 36.7691 150.468 37.6437C150.468 38.0064 150.617 38.3051 150.916 38.5397C151.214 38.7531 151.566 38.8597 151.972 38.8597C152.974 38.8597 154.105 38.1877 155.364 36.8437C156.622 35.4784 157.497 33.8251 157.988 31.8837C158.052 31.5637 158.233 31.3717 158.532 31.3077V31.2757Z"/>
</mask>
<path d="M18.6657 41.3557C18.367 41.3557 18.015 41.1104 17.6097 40.6197C17.2257 40.1077 17.0337 39.5851 17.0337 39.0517C17.0337 38.4971 17.727 35.5317 19.1137 30.1557C20.5004 24.7797 21.1937 21.4091 21.1937 20.0437C21.1937 19.6597 21.2364 19.3931 21.3217 19.2437C21.407 19.0944 21.599 19.0197 21.8977 19.0197C22.2177 19.0197 22.591 19.3504 23.0177 20.0117C23.4444 20.6731 23.6577 21.4304 23.6577 22.2837C23.6577 23.1371 23.103 25.6651 21.9937 29.8677C23.935 27.2224 25.983 24.7904 28.1377 22.5717C30.2924 20.3317 31.6577 19.2117 32.2337 19.2117C32.6604 19.2117 33.055 19.3504 33.4177 19.6277C33.8017 19.9051 33.9937 20.1824 33.9937 20.4597C33.9937 20.7157 33.4817 21.3131 32.4577 22.2517C31.455 23.1691 30.1004 24.4597 28.3937 26.1237C26.687 27.7877 25.2257 29.4517 24.0097 31.1157C24.0097 31.9904 24.2444 32.9397 24.7137 33.9637C25.4604 35.6704 26.9964 37.0891 29.3217 38.2197C30.3244 38.7104 31.103 39.1264 31.6577 39.4677C32.2337 39.8091 32.5217 40.1611 32.5217 40.5237C32.5217 41.0784 32.1057 41.3557 31.2737 41.3557C30.4417 41.3557 29.567 41.1851 28.6497 40.8437C27.7324 40.4811 26.815 39.9797 25.8977 39.3397C24.9804 38.6997 24.1377 37.8571 23.3697 36.8117C22.623 35.7451 22.111 34.5824 21.8337 33.3237C21.1724 34.4971 20.5537 36.0437 19.9777 37.9637C19.2737 40.2251 18.847 41.3557 18.6977 41.3557H18.6657Z" fill="#F8CAE7"/>
<path d="M47.7159 25.6437C48.0573 25.6437 48.4199 25.8997 48.8039 26.4117C49.2093 26.9024 49.4119 27.4571 49.4119 28.0757C49.4119 28.5024 48.9746 29.9531 48.0999 32.4277C47.2253 34.9024 46.6279 36.5877 46.3079 37.4837C46.0093 38.3584 45.5933 39.5317 45.0599 41.0037C44.5479 42.4544 44.0466 43.8731 43.5559 45.2597C42.4893 48.3104 40.8893 49.8357 38.7559 49.8357C37.5399 49.8357 36.3773 49.4624 35.2679 48.7157C34.1586 47.9904 33.6039 47.2331 33.6039 46.4437C33.6039 46.1451 33.7426 45.8144 34.0199 45.4517C34.2759 45.0891 34.4999 44.9077 34.6919 44.9077C34.8839 44.9077 35.1933 45.1424 35.6199 45.6117C36.8573 47.0197 37.9133 47.7237 38.7879 47.7237C39.4493 47.7237 40.0466 47.1371 40.5799 45.9637C41.1133 44.8117 41.6146 43.4997 42.0839 42.0277C42.5746 40.5771 42.8413 39.7771 42.8839 39.6277C42.9479 39.4784 43.0119 39.2864 43.0759 39.0517C43.1613 38.8171 43.2359 38.6037 43.2999 38.4117C41.7853 40.4811 40.2919 41.5157 38.8199 41.5157C37.9239 41.5157 37.0919 41.0997 36.3239 40.2677C35.5773 39.4357 35.2039 38.4544 35.2039 37.3237C35.2039 36.1931 35.4813 34.6677 36.0359 32.7477C36.5906 30.8277 37.2413 29.1637 37.9879 27.7557C38.7346 26.3477 39.3426 25.6437 39.8119 25.6437C40.1959 25.6437 40.5479 25.8251 40.8679 26.1877C41.2093 26.5291 41.3799 26.8811 41.3799 27.2437C41.3799 27.6064 41.1026 28.3637 40.5479 29.5157C38.8199 33.0571 37.9559 35.8091 37.9559 37.7717C37.9559 38.1131 38.0626 38.4011 38.2759 38.6357C38.4893 38.8491 38.7453 38.9557 39.0439 38.9557C39.8119 38.9557 40.7293 38.2731 41.7959 36.9077C42.8626 35.5424 43.8439 33.9211 44.7399 32.0437C45.4866 30.4651 46.2653 28.4491 47.0759 25.9957C47.1613 25.7611 47.3746 25.6437 47.7159 25.6437Z" fill="#F8CAE7"/>
<path d="M51.7542 17.0546C54.5999 16.0021 55.9869 20.7136 55.9869 20.7136C55.9869 20.7136 56.9674 14.4005 61.1762 16.6481C65.385 18.8957 56.2261 24.994 55.1021 24.7548C53.9782 24.5157 48.9084 18.1071 51.7542 17.0546ZM54.1399 25.6437C54.5453 25.6437 54.9293 25.8891 55.2919 26.3797C55.6546 26.8704 55.8359 27.3504 55.8359 27.8197C55.8359 28.2891 55.5266 29.6971 54.9079 32.0437C54.2893 34.3691 53.5106 36.9824 52.5719 39.8837C52.2093 40.9504 51.7506 41.4837 51.1959 41.4837C50.8973 41.4837 50.6413 41.3664 50.4279 41.1317C50.2146 40.8757 50.1079 40.5984 50.1079 40.2997C50.1079 39.9797 50.1826 39.4891 50.3319 38.8277C50.5026 38.1451 50.7373 37.2491 51.0359 36.1397C51.3559 35.0091 51.6013 34.0917 51.7719 33.3877C51.9639 32.6837 52.1559 31.8944 52.3479 31.0197C52.5399 30.1237 52.6893 29.4091 52.7959 28.8757C52.9239 28.3211 53.0626 27.7664 53.2119 27.2117C53.5106 26.1664 53.8199 25.6437 54.1399 25.6437Z" fill="#F8CAE7"/>
<path d="M68.8689 25.6437C69.2316 25.6437 69.5836 25.7824 69.9249 26.0597C70.2663 26.3157 70.4369 26.6037 70.4369 26.9237C70.4369 27.4997 69.6583 29.4944 68.1009 32.9077C66.5649 36.3211 65.4663 38.6251 64.8049 39.8197C64.1649 40.9931 63.5996 41.5797 63.1089 41.5797C62.8316 41.5797 62.4903 41.3771 62.0849 40.9717C61.6796 40.5664 61.3809 40.1291 61.1889 39.6597C60.6129 38.3157 59.9943 36.1504 59.3329 33.1637C58.6716 30.1771 58.3409 27.9904 58.3409 26.6037C58.3409 25.9637 58.5329 25.6437 58.9169 25.6437C59.3863 25.6437 59.8663 25.8464 60.3569 26.2517C60.8476 26.6357 61.1889 27.1264 61.3809 27.7237C61.4449 28.0651 61.5303 28.9184 61.6369 30.2837C61.9356 33.6544 62.4476 36.2464 63.1729 38.0597C63.7489 36.8224 64.4849 35.0731 65.3809 32.8117C66.2769 30.5291 67.0023 28.7691 67.5569 27.5317C68.1329 26.2731 68.5703 25.6437 68.8689 25.6437Z" fill="#F8CAE7"/>
<path d="M88.2249 24.2997C88.2249 26.6037 87.1156 28.5557 84.8969 30.1557C82.6996 31.7557 79.7876 32.9077 76.1609 33.6117C74.6036 38.8811 73.6756 41.5157 73.3769 41.5157C73.0783 41.5157 72.7263 41.2811 72.3209 40.8117C71.9156 40.3211 71.7129 39.8411 71.7129 39.3717C71.7129 38.8811 72.0223 37.6011 72.6409 35.5317C74.5609 29.1531 75.5636 24.7051 75.6489 22.1877C75.1369 21.7184 74.8809 21.2917 74.8809 20.9077C74.8809 20.3744 75.6063 19.8624 77.0569 19.3717C78.5076 18.8811 79.8943 18.6357 81.2169 18.6357C83.2649 18.6357 84.9396 19.1584 86.2409 20.2037C87.5636 21.2491 88.2249 22.6144 88.2249 24.2997ZM85.4089 24.4917C85.4089 23.5531 85.0463 22.7851 84.3209 22.1877C83.6169 21.5691 82.7636 21.2597 81.7609 21.2597C80.7583 21.2597 79.5423 21.5797 78.1129 22.2197C78.3263 22.6891 78.4329 23.1264 78.4329 23.5317C78.4329 24.7264 77.9103 27.2544 76.8649 31.1157C79.4249 30.4331 81.4836 29.4944 83.0409 28.2997C84.6196 27.0837 85.4089 25.8144 85.4089 24.4917Z" fill="#F8CAE7"/>
<path d="M100.032 26.5397C100.117 26.1984 100.203 25.9637 100.288 25.8357C100.373 25.7077 100.555 25.6437 100.832 25.6437C101.131 25.6437 101.483 25.9211 101.888 26.4757C102.315 27.0304 102.528 27.5637 102.528 28.0757C102.528 28.3531 102.059 29.9957 101.12 33.0037C100.181 36.0117 99.4559 38.4011 98.9439 40.1717C98.6879 41.0677 98.3253 41.5157 97.8559 41.5157C97.5786 41.5157 97.3439 41.3984 97.1519 41.1637C96.9599 40.9291 96.8639 40.5024 96.8639 39.8837C96.8639 39.2651 97.1093 38.1451 97.5999 36.5237C96.7039 37.9744 95.7333 39.1691 94.6879 40.1077C93.6426 41.0464 92.6826 41.5157 91.8079 41.5157C90.9546 41.5157 90.1439 41.1104 89.3759 40.2997C88.6079 39.4891 88.2239 38.6571 88.2239 37.8037C88.2239 35.7771 88.8106 33.2491 89.9839 30.2197C91.1786 27.1691 92.1706 25.6437 92.9599 25.6437C93.3439 25.6437 93.6746 25.8251 93.9519 26.1877C94.2506 26.5291 94.3999 26.9237 94.3999 27.3717C94.3999 27.5637 94.1119 28.2571 93.5359 29.4517C92.9599 30.6251 92.3839 32.0117 91.8079 33.6117C91.2319 35.1904 90.9439 36.5771 90.9439 37.7717C90.9439 38.1131 91.0506 38.4011 91.2639 38.6357C91.4773 38.8491 91.7333 38.9557 92.0319 38.9557C92.8426 38.9557 93.8026 38.2411 94.9119 36.8117C96.0426 35.3824 97.0666 33.7184 97.9839 31.8197C98.9013 29.9211 99.5839 28.1611 100.032 26.5397Z" fill="#F8CAE7"/>
<path d="M107.694 38.3157C107.694 38.7211 107.929 38.9237 108.398 38.9237C109.209 38.9237 110.19 38.6997 111.342 38.2517C112.516 37.7824 113.166 37.5477 113.294 37.5477C113.678 37.5477 113.87 37.7504 113.87 38.1557C113.87 38.7744 113.23 39.4891 111.95 40.2997C110.692 41.1104 109.54 41.5157 108.494 41.5157C107.47 41.5157 106.617 41.2384 105.934 40.6837C105.252 40.1077 104.91 39.5211 104.91 38.9237C104.91 38.3264 105.038 37.5691 105.294 36.6517C105.55 35.7131 105.913 34.4864 106.382 32.9717C106.873 31.4357 107.257 30.1664 107.534 29.1637C106.532 29.3984 105.86 29.5157 105.518 29.5157C105.177 29.5157 104.836 29.3451 104.494 29.0037C104.174 28.6411 104.014 28.2997 104.014 27.9797C104.014 27.4677 105.401 26.9771 108.174 26.5077C108.558 24.7371 108.75 23.1691 108.75 21.8037C108.75 21.1637 108.964 20.8437 109.39 20.8437C109.753 20.8437 110.201 21.0784 110.734 21.5477C111.268 21.9957 111.534 22.5077 111.534 23.0837C111.534 23.6597 111.353 24.6731 110.99 26.1237C112.206 26.0171 113.177 25.9637 113.902 25.9637C115.182 25.9637 115.822 26.2411 115.822 26.7957C115.822 27.1157 115.47 27.3824 114.766 27.5957C114.084 27.8091 112.633 28.1397 110.414 28.5877C109.966 30.2731 109.401 32.2037 108.718 34.3797C108.036 36.5344 107.694 37.8464 107.694 38.3157Z" fill="#F8CAE7"/>
<path d="M124.997 25.6437C125.957 25.6437 126.843 26.1344 127.653 27.1157C128.464 28.0757 128.869 28.9504 128.869 29.7397C128.869 30.5077 128.603 31.2971 128.069 32.1077C128.325 32.4277 128.453 32.7051 128.453 32.9397C128.453 33.5371 128.315 34.5611 128.037 36.0117C127.781 37.4624 127.621 38.4117 127.557 38.8597C127.515 39.3077 127.472 39.6704 127.429 39.9477C127.387 40.2037 127.333 40.4597 127.269 40.7157C127.184 41.2491 126.992 41.5157 126.693 41.5157C126.309 41.5157 125.989 41.1851 125.733 40.5237C125.499 39.8411 125.36 38.9664 125.317 37.8997C123.419 40.3104 121.659 41.5157 120.037 41.5157C119.056 41.5157 118.085 41.0997 117.125 40.2677C116.187 39.4144 115.717 38.5397 115.717 37.6437C115.717 36.3637 116.187 34.7851 117.125 32.9077C118.064 31.0091 119.28 29.3237 120.773 27.8517C122.267 26.3797 123.675 25.6437 124.997 25.6437ZM126.469 31.2757C126.469 29.2917 126.075 28.2997 125.285 28.2997C124.453 28.2997 123.483 28.8971 122.373 30.0917C121.264 31.2651 120.325 32.5984 119.557 34.0917C118.789 35.5851 118.405 36.7691 118.405 37.6437C118.405 38.0064 118.555 38.3051 118.853 38.5397C119.152 38.7531 119.504 38.8597 119.909 38.8597C120.912 38.8597 122.043 38.1877 123.301 36.8437C124.56 35.4784 125.435 33.8251 125.925 31.8837C125.989 31.5637 126.171 31.3717 126.469 31.3077V31.2757Z" fill="#F8CAE7"/>
<path d="M134.621 35.9477C136.669 32.4704 138.333 29.8891 139.613 28.2037C140.915 26.4971 141.971 25.6437 142.781 25.6437C143.613 25.6437 144.392 26.0811 145.117 26.9557C145.864 27.8304 146.237 28.7584 146.237 29.7397C146.237 31.2757 145.885 33.1531 145.181 35.3717C143.901 39.4677 142.749 41.5157 141.725 41.5157C141.256 41.5157 141.021 41.1957 141.021 40.5557C141.021 40.1077 141.245 39.2011 141.693 37.8357C142.163 36.4491 142.589 35.0944 142.973 33.7717C143.379 32.4277 143.581 31.4251 143.581 30.7637C143.581 30.0811 143.475 29.5797 143.261 29.2597C143.069 28.9397 142.867 28.7797 142.653 28.7797C142.461 28.7797 142.259 28.8437 142.045 28.9717C141.832 29.0997 141.587 29.3131 141.309 29.6117C141.053 29.9104 140.808 30.2091 140.573 30.5077C140.339 30.7851 140.04 31.1904 139.677 31.7237C139.336 32.2571 139.048 32.7157 138.813 33.0997C138.579 33.4624 138.237 33.9957 137.789 34.6997C137.341 35.4037 137 35.9371 136.765 36.2997C136.531 36.6624 136.221 37.1531 135.837 37.7717C135.453 38.3904 135.144 38.8704 134.909 39.2117C134.696 39.5531 134.451 39.9264 134.173 40.3317C133.64 41.1211 133.213 41.5157 132.893 41.5157C132.595 41.5157 132.243 41.2811 131.837 40.8117C131.432 40.3211 131.229 39.8944 131.229 39.5317C131.229 39.4251 131.304 39.1371 131.453 38.6677C131.859 37.4304 132.307 35.9051 132.797 34.0917C133.288 32.2571 133.555 30.1771 133.597 27.8517C133.661 26.2944 133.885 25.5157 134.269 25.5157C134.739 25.5157 135.208 25.7611 135.677 26.2517C136.147 26.7424 136.381 27.2864 136.381 27.8837C136.381 28.4597 136.2 29.5904 135.837 31.2757C135.496 32.9397 135.091 34.4971 134.621 35.9477Z" fill="#F8CAE7"/>
<path d="M157.06 25.6437C158.02 25.6437 158.905 26.1344 159.716 27.1157C160.526 28.0757 160.932 28.9504 160.932 29.7397C160.932 30.5077 160.665 31.2971 160.132 32.1077C160.388 32.4277 160.516 32.7051 160.516 32.9397C160.516 33.5371 160.377 34.5611 160.1 36.0117C159.844 37.4624 159.684 38.4117 159.62 38.8597C159.577 39.3077 159.534 39.6704 159.492 39.9477C159.449 40.2037 159.396 40.4597 159.332 40.7157C159.246 41.2491 159.054 41.5157 158.756 41.5157C158.372 41.5157 158.052 41.1851 157.796 40.5237C157.561 39.8411 157.422 38.9664 157.38 37.8997C155.481 40.3104 153.721 41.5157 152.1 41.5157C151.118 41.5157 150.148 41.0997 149.188 40.2677C148.249 39.4144 147.78 38.5397 147.78 37.6437C147.78 36.3637 148.249 34.7851 149.188 32.9077C150.126 31.0091 151.342 29.3237 152.836 27.8517C154.329 26.3797 155.737 25.6437 157.06 25.6437ZM158.532 31.2757C158.532 29.2917 158.137 28.2997 157.348 28.2997C156.516 28.2997 155.545 28.8971 154.436 30.0917C153.326 31.2651 152.388 32.5984 151.62 34.0917C150.852 35.5851 150.468 36.7691 150.468 37.6437C150.468 38.0064 150.617 38.3051 150.916 38.5397C151.214 38.7531 151.566 38.8597 151.972 38.8597C152.974 38.8597 154.105 38.1877 155.364 36.8437C156.622 35.4784 157.497 33.8251 157.988 31.8837C158.052 31.5637 158.233 31.3717 158.532 31.3077V31.2757Z" fill="#F8CAE7"/>
<path d="M18.6657 41.3557C18.367 41.3557 18.015 41.1104 17.6097 40.6197C17.2257 40.1077 17.0337 39.5851 17.0337 39.0517C17.0337 38.4971 17.727 35.5317 19.1137 30.1557C20.5004 24.7797 21.1937 21.4091 21.1937 20.0437C21.1937 19.6597 21.2364 19.3931 21.3217 19.2437C21.407 19.0944 21.599 19.0197 21.8977 19.0197C22.2177 19.0197 22.591 19.3504 23.0177 20.0117C23.4444 20.6731 23.6577 21.4304 23.6577 22.2837C23.6577 23.1371 23.103 25.6651 21.9937 29.8677C23.935 27.2224 25.983 24.7904 28.1377 22.5717C30.2924 20.3317 31.6577 19.2117 32.2337 19.2117C32.6604 19.2117 33.055 19.3504 33.4177 19.6277C33.8017 19.9051 33.9937 20.1824 33.9937 20.4597C33.9937 20.7157 33.4817 21.3131 32.4577 22.2517C31.455 23.1691 30.1004 24.4597 28.3937 26.1237C26.687 27.7877 25.2257 29.4517 24.0097 31.1157C24.0097 31.9904 24.2444 32.9397 24.7137 33.9637C25.4604 35.6704 26.9964 37.0891 29.3217 38.2197C30.3244 38.7104 31.103 39.1264 31.6577 39.4677C32.2337 39.8091 32.5217 40.1611 32.5217 40.5237C32.5217 41.0784 32.1057 41.3557 31.2737 41.3557C30.4417 41.3557 29.567 41.1851 28.6497 40.8437C27.7324 40.4811 26.815 39.9797 25.8977 39.3397C24.9804 38.6997 24.1377 37.8571 23.3697 36.8117C22.623 35.7451 22.111 34.5824 21.8337 33.3237C21.1724 34.4971 20.5537 36.0437 19.9777 37.9637C19.2737 40.2251 18.847 41.3557 18.6977 41.3557H18.6657Z" stroke="#F6339A" stroke-width="6" mask="url(#path-2-outside-1_13_14)"/>
<path d="M47.7159 25.6437C48.0573 25.6437 48.4199 25.8997 48.8039 26.4117C49.2093 26.9024 49.4119 27.4571 49.4119 28.0757C49.4119 28.5024 48.9746 29.9531 48.0999 32.4277C47.2253 34.9024 46.6279 36.5877 46.3079 37.4837C46.0093 38.3584 45.5933 39.5317 45.0599 41.0037C44.5479 42.4544 44.0466 43.8731 43.5559 45.2597C42.4893 48.3104 40.8893 49.8357 38.7559 49.8357C37.5399 49.8357 36.3773 49.4624 35.2679 48.7157C34.1586 47.9904 33.6039 47.2331 33.6039 46.4437C33.6039 46.1451 33.7426 45.8144 34.0199 45.4517C34.2759 45.0891 34.4999 44.9077 34.6919 44.9077C34.8839 44.9077 35.1933 45.1424 35.6199 45.6117C36.8573 47.0197 37.9133 47.7237 38.7879 47.7237C39.4493 47.7237 40.0466 47.1371 40.5799 45.9637C41.1133 44.8117 41.6146 43.4997 42.0839 42.0277C42.5746 40.5771 42.8413 39.7771 42.8839 39.6277C42.9479 39.4784 43.0119 39.2864 43.0759 39.0517C43.1613 38.8171 43.2359 38.6037 43.2999 38.4117C41.7853 40.4811 40.2919 41.5157 38.8199 41.5157C37.9239 41.5157 37.0919 41.0997 36.3239 40.2677C35.5773 39.4357 35.2039 38.4544 35.2039 37.3237C35.2039 36.1931 35.4813 34.6677 36.0359 32.7477C36.5906 30.8277 37.2413 29.1637 37.9879 27.7557C38.7346 26.3477 39.3426 25.6437 39.8119 25.6437C40.1959 25.6437 40.5479 25.8251 40.8679 26.1877C41.2093 26.5291 41.3799 26.8811 41.3799 27.2437C41.3799 27.6064 41.1026 28.3637 40.5479 29.5157C38.8199 33.0571 37.9559 35.8091 37.9559 37.7717C37.9559 38.1131 38.0626 38.4011 38.2759 38.6357C38.4893 38.8491 38.7453 38.9557 39.0439 38.9557C39.8119 38.9557 40.7293 38.2731 41.7959 36.9077C42.8626 35.5424 43.8439 33.9211 44.7399 32.0437C45.4866 30.4651 46.2653 28.4491 47.0759 25.9957C47.1613 25.7611 47.3746 25.6437 47.7159 25.6437Z" stroke="#F6339A" stroke-width="6" mask="url(#path-2-outside-1_13_14)"/>
<path d="M51.7542 17.0546C54.5999 16.0021 55.9869 20.7136 55.9869 20.7136C55.9869 20.7136 56.9674 14.4005 61.1762 16.6481C65.385 18.8957 56.2261 24.994 55.1021 24.7548C53.9782 24.5157 48.9084 18.1071 51.7542 17.0546ZM54.1399 25.6437C54.5453 25.6437 54.9293 25.8891 55.2919 26.3797C55.6546 26.8704 55.8359 27.3504 55.8359 27.8197C55.8359 28.2891 55.5266 29.6971 54.9079 32.0437C54.2893 34.3691 53.5106 36.9824 52.5719 39.8837C52.2093 40.9504 51.7506 41.4837 51.1959 41.4837C50.8973 41.4837 50.6413 41.3664 50.4279 41.1317C50.2146 40.8757 50.1079 40.5984 50.1079 40.2997C50.1079 39.9797 50.1826 39.4891 50.3319 38.8277C50.5026 38.1451 50.7373 37.2491 51.0359 36.1397C51.3559 35.0091 51.6013 34.0917 51.7719 33.3877C51.9639 32.6837 52.1559 31.8944 52.3479 31.0197C52.5399 30.1237 52.6893 29.4091 52.7959 28.8757C52.9239 28.3211 53.0626 27.7664 53.2119 27.2117C53.5106 26.1664 53.8199 25.6437 54.1399 25.6437Z" stroke="#F6339A" stroke-width="6" mask="url(#path-2-outside-1_13_14)"/>
<path d="M68.8689 25.6437C69.2316 25.6437 69.5836 25.7824 69.9249 26.0597C70.2663 26.3157 70.4369 26.6037 70.4369 26.9237C70.4369 27.4997 69.6583 29.4944 68.1009 32.9077C66.5649 36.3211 65.4663 38.6251 64.8049 39.8197C64.1649 40.9931 63.5996 41.5797 63.1089 41.5797C62.8316 41.5797 62.4903 41.3771 62.0849 40.9717C61.6796 40.5664 61.3809 40.1291 61.1889 39.6597C60.6129 38.3157 59.9943 36.1504 59.3329 33.1637C58.6716 30.1771 58.3409 27.9904 58.3409 26.6037C58.3409 25.9637 58.5329 25.6437 58.9169 25.6437C59.3863 25.6437 59.8663 25.8464 60.3569 26.2517C60.8476 26.6357 61.1889 27.1264 61.3809 27.7237C61.4449 28.0651 61.5303 28.9184 61.6369 30.2837C61.9356 33.6544 62.4476 36.2464 63.1729 38.0597C63.7489 36.8224 64.4849 35.0731 65.3809 32.8117C66.2769 30.5291 67.0023 28.7691 67.5569 27.5317C68.1329 26.2731 68.5703 25.6437 68.8689 25.6437Z" stroke="#F6339A" stroke-width="6" mask="url(#path-2-outside-1_13_14)"/>
<path d="M88.2249 24.2997C88.2249 26.6037 87.1156 28.5557 84.8969 30.1557C82.6996 31.7557 79.7876 32.9077 76.1609 33.6117C74.6036 38.8811 73.6756 41.5157 73.3769 41.5157C73.0783 41.5157 72.7263 41.2811 72.3209 40.8117C71.9156 40.3211 71.7129 39.8411 71.7129 39.3717C71.7129 38.8811 72.0223 37.6011 72.6409 35.5317C74.5609 29.1531 75.5636 24.7051 75.6489 22.1877C75.1369 21.7184 74.8809 21.2917 74.8809 20.9077C74.8809 20.3744 75.6063 19.8624 77.0569 19.3717C78.5076 18.8811 79.8943 18.6357 81.2169 18.6357C83.2649 18.6357 84.9396 19.1584 86.2409 20.2037C87.5636 21.2491 88.2249 22.6144 88.2249 24.2997ZM85.4089 24.4917C85.4089 23.5531 85.0463 22.7851 84.3209 22.1877C83.6169 21.5691 82.7636 21.2597 81.7609 21.2597C80.7583 21.2597 79.5423 21.5797 78.1129 22.2197C78.3263 22.6891 78.4329 23.1264 78.4329 23.5317C78.4329 24.7264 77.9103 27.2544 76.8649 31.1157C79.4249 30.4331 81.4836 29.4944 83.0409 28.2997C84.6196 27.0837 85.4089 25.8144 85.4089 24.4917Z" stroke="#F6339A" stroke-width="6" mask="url(#path-2-outside-1_13_14)"/>
<path d="M100.032 26.5397C100.117 26.1984 100.203 25.9637 100.288 25.8357C100.373 25.7077 100.555 25.6437 100.832 25.6437C101.131 25.6437 101.483 25.9211 101.888 26.4757C102.315 27.0304 102.528 27.5637 102.528 28.0757C102.528 28.3531 102.059 29.9957 101.12 33.0037C100.181 36.0117 99.4559 38.4011 98.9439 40.1717C98.6879 41.0677 98.3253 41.5157 97.8559 41.5157C97.5786 41.5157 97.3439 41.3984 97.1519 41.1637C96.9599 40.9291 96.8639 40.5024 96.8639 39.8837C96.8639 39.2651 97.1093 38.1451 97.5999 36.5237C96.7039 37.9744 95.7333 39.1691 94.6879 40.1077C93.6426 41.0464 92.6826 41.5157 91.8079 41.5157C90.9546 41.5157 90.1439 41.1104 89.3759 40.2997C88.6079 39.4891 88.2239 38.6571 88.2239 37.8037C88.2239 35.7771 88.8106 33.2491 89.9839 30.2197C91.1786 27.1691 92.1706 25.6437 92.9599 25.6437C93.3439 25.6437 93.6746 25.8251 93.9519 26.1877C94.2506 26.5291 94.3999 26.9237 94.3999 27.3717C94.3999 27.5637 94.1119 28.2571 93.5359 29.4517C92.9599 30.6251 92.3839 32.0117 91.8079 33.6117C91.2319 35.1904 90.9439 36.5771 90.9439 37.7717C90.9439 38.1131 91.0506 38.4011 91.2639 38.6357C91.4773 38.8491 91.7333 38.9557 92.0319 38.9557C92.8426 38.9557 93.8026 38.2411 94.9119 36.8117C96.0426 35.3824 97.0666 33.7184 97.9839 31.8197C98.9013 29.9211 99.5839 28.1611 100.032 26.5397Z" stroke="#F6339A" stroke-width="6" mask="url(#path-2-outside-1_13_14)"/>
<path d="M107.694 38.3157C107.694 38.7211 107.929 38.9237 108.398 38.9237C109.209 38.9237 110.19 38.6997 111.342 38.2517C112.516 37.7824 113.166 37.5477 113.294 37.5477C113.678 37.5477 113.87 37.7504 113.87 38.1557C113.87 38.7744 113.23 39.4891 111.95 40.2997C110.692 41.1104 109.54 41.5157 108.494 41.5157C107.47 41.5157 106.617 41.2384 105.934 40.6837C105.252 40.1077 104.91 39.5211 104.91 38.9237C104.91 38.3264 105.038 37.5691 105.294 36.6517C105.55 35.7131 105.913 34.4864 106.382 32.9717C106.873 31.4357 107.257 30.1664 107.534 29.1637C106.532 29.3984 105.86 29.5157 105.518 29.5157C105.177 29.5157 104.836 29.3451 104.494 29.0037C104.174 28.6411 104.014 28.2997 104.014 27.9797C104.014 27.4677 105.401 26.9771 108.174 26.5077C108.558 24.7371 108.75 23.1691 108.75 21.8037C108.75 21.1637 108.964 20.8437 109.39 20.8437C109.753 20.8437 110.201 21.0784 110.734 21.5477C111.268 21.9957 111.534 22.5077 111.534 23.0837C111.534 23.6597 111.353 24.6731 110.99 26.1237C112.206 26.0171 113.177 25.9637 113.902 25.9637C115.182 25.9637 115.822 26.2411 115.822 26.7957C115.822 27.1157 115.47 27.3824 114.766 27.5957C114.084 27.8091 112.633 28.1397 110.414 28.5877C109.966 30.2731 109.401 32.2037 108.718 34.3797C108.036 36.5344 107.694 37.8464 107.694 38.3157Z" stroke="#F6339A" stroke-width="6" mask="url(#path-2-outside-1_13_14)"/>
<path d="M124.997 25.6437C125.957 25.6437 126.843 26.1344 127.653 27.1157C128.464 28.0757 128.869 28.9504 128.869 29.7397C128.869 30.5077 128.603 31.2971 128.069 32.1077C128.325 32.4277 128.453 32.7051 128.453 32.9397C128.453 33.5371 128.315 34.5611 128.037 36.0117C127.781 37.4624 127.621 38.4117 127.557 38.8597C127.515 39.3077 127.472 39.6704 127.429 39.9477C127.387 40.2037 127.333 40.4597 127.269 40.7157C127.184 41.2491 126.992 41.5157 126.693 41.5157C126.309 41.5157 125.989 41.1851 125.733 40.5237C125.499 39.8411 125.36 38.9664 125.317 37.8997C123.419 40.3104 121.659 41.5157 120.037 41.5157C119.056 41.5157 118.085 41.0997 117.125 40.2677C116.187 39.4144 115.717 38.5397 115.717 37.6437C115.717 36.3637 116.187 34.7851 117.125 32.9077C118.064 31.0091 119.28 29.3237 120.773 27.8517C122.267 26.3797 123.675 25.6437 124.997 25.6437ZM126.469 31.2757C126.469 29.2917 126.075 28.2997 125.285 28.2997C124.453 28.2997 123.483 28.8971 122.373 30.0917C121.264 31.2651 120.325 32.5984 119.557 34.0917C118.789 35.5851 118.405 36.7691 118.405 37.6437C118.405 38.0064 118.555 38.3051 118.853 38.5397C119.152 38.7531 119.504 38.8597 119.909 38.8597C120.912 38.8597 122.043 38.1877 123.301 36.8437C124.56 35.4784 125.435 33.8251 125.925 31.8837C125.989 31.5637 126.171 31.3717 126.469 31.3077V31.2757Z" stroke="#F6339A" stroke-width="6" mask="url(#path-2-outside-1_13_14)"/>
<path d="M134.621 35.9477C136.669 32.4704 138.333 29.8891 139.613 28.2037C140.915 26.4971 141.971 25.6437 142.781 25.6437C143.613 25.6437 144.392 26.0811 145.117 26.9557C145.864 27.8304 146.237 28.7584 146.237 29.7397C146.237 31.2757 145.885 33.1531 145.181 35.3717C143.901 39.4677 142.749 41.5157 141.725 41.5157C141.256 41.5157 141.021 41.1957 141.021 40.5557C141.021 40.1077 141.245 39.2011 141.693 37.8357C142.163 36.4491 142.589 35.0944 142.973 33.7717C143.379 32.4277 143.581 31.4251 143.581 30.7637C143.581 30.0811 143.475 29.5797 143.261 29.2597C143.069 28.9397 142.867 28.7797 142.653 28.7797C142.461 28.7797 142.259 28.8437 142.045 28.9717C141.832 29.0997 141.587 29.3131 141.309 29.6117C141.053 29.9104 140.808 30.2091 140.573 30.5077C140.339 30.7851 140.04 31.1904 139.677 31.7237C139.336 32.2571 139.048 32.7157 138.813 33.0997C138.579 33.4624 138.237 33.9957 137.789 34.6997C137.341 35.4037 137 35.9371 136.765 36.2997C136.531 36.6624 136.221 37.1531 135.837 37.7717C135.453 38.3904 135.144 38.8704 134.909 39.2117C134.696 39.5531 134.451 39.9264 134.173 40.3317C133.64 41.1211 133.213 41.5157 132.893 41.5157C132.595 41.5157 132.243 41.2811 131.837 40.8117C131.432 40.3211 131.229 39.8944 131.229 39.5317C131.229 39.4251 131.304 39.1371 131.453 38.6677C131.859 37.4304 132.307 35.9051 132.797 34.0917C133.288 32.2571 133.555 30.1771 133.597 27.8517C133.661 26.2944 133.885 25.5157 134.269 25.5157C134.739 25.5157 135.208 25.7611 135.677 26.2517C136.147 26.7424 136.381 27.2864 136.381 27.8837C136.381 28.4597 136.2 29.5904 135.837 31.2757C135.496 32.9397 135.091 34.4971 134.621 35.9477Z" stroke="#F6339A" stroke-width="6" mask="url(#path-2-outside-1_13_14)"/>
<path d="M157.06 25.6437C158.02 25.6437 158.905 26.1344 159.716 27.1157C160.526 28.0757 160.932 28.9504 160.932 29.7397C160.932 30.5077 160.665 31.2971 160.132 32.1077C160.388 32.4277 160.516 32.7051 160.516 32.9397C160.516 33.5371 160.377 34.5611 160.1 36.0117C159.844 37.4624 159.684 38.4117 159.62 38.8597C159.577 39.3077 159.534 39.6704 159.492 39.9477C159.449 40.2037 159.396 40.4597 159.332 40.7157C159.246 41.2491 159.054 41.5157 158.756 41.5157C158.372 41.5157 158.052 41.1851 157.796 40.5237C157.561 39.8411 157.422 38.9664 157.38 37.8997C155.481 40.3104 153.721 41.5157 152.1 41.5157C151.118 41.5157 150.148 41.0997 149.188 40.2677C148.249 39.4144 147.78 38.5397 147.78 37.6437C147.78 36.3637 148.249 34.7851 149.188 32.9077C150.126 31.0091 151.342 29.3237 152.836 27.8517C154.329 26.3797 155.737 25.6437 157.06 25.6437ZM158.532 31.2757C158.532 29.2917 158.137 28.2997 157.348 28.2997C156.516 28.2997 155.545 28.8971 154.436 30.0917C153.326 31.2651 152.388 32.5984 151.62 34.0917C150.852 35.5851 150.468 36.7691 150.468 37.6437C150.468 38.0064 150.617 38.3051 150.916 38.5397C151.214 38.7531 151.566 38.8597 151.972 38.8597C152.974 38.8597 154.105 38.1877 155.364 36.8437C156.622 35.4784 157.497 33.8251 157.988 31.8837C158.052 31.5637 158.233 31.3717 158.532 31.3077V31.2757Z" stroke="#F6339A" stroke-width="6" mask="url(#path-2-outside-1_13_14)"/>
</g>
<defs>
<filter id="filter0_f_13_14" x="-4.76431" y="6.15476" width="181.484" height="53.4407" filterUnits="userSpaceOnUse" color-interpolation-filters="sRGB">
<feFlood flood-opacity="0" result="BackgroundImageFix"/>
<feBlend mode="normal" in="SourceGraphic" in2="BackgroundImageFix" result="shape"/>
<feGaussianBlur stdDeviation="8.8" result="effect1_foregroundBlur_13_14"/>
</filter>
<clipPath id="clip0_13_14">
<rect width="177" height="66" fill="white"/>
</clipPath>
</defs>
</svg>
